<?xml version="1.0" encoding="UTF-8"?>
<svg id="Layer_1" xmlns="http://www.w3.org/2000/svg" version="1.1" viewBox="0 0 841.89 276.32">
  <!-- Generator: Adobe Illustrator 30.2.0, SVG Export Plug-In . SVG Version: 2.1.1 Build 105)  -->
  <defs>
    <style>
      .st0 {
        fill: #202b4f;
      }

      .st1 {
        fill: #ed7e23;
      }

      .st2 {
        fill: #5c5b5e;
      }
    </style>
  </defs>
  <path class="st2" d="M478.59,87.29h23.76v60.22h72.09v-60.22h23.76v145.42h-23.76v-62.27h-72.09v62.27h-23.76V87.29Z"/>
  <path class="st2" d="M692.84,220.93c-3.51,3.92-7.8,6.72-12.86,8.4-5.06,1.69-10.23,2.53-15.49,2.53-6.35,0-12.05-1.05-17.11-3.14-5.06-2.09-9.35-5.03-12.86-8.81-3.51-3.78-6.25-8.37-8.2-13.77-1.96-5.4-2.93-11.34-2.93-17.82v-59.33h22.27v58.92c0,2.7.51,5.4,1.52,8.1,1.01,2.7,2.5,5.13,4.45,7.29,1.95,2.16,4.39,3.92,7.29,5.26,2.9,1.35,6.18,2.02,9.82,2.02,5.67,0,10.56-1.42,14.68-4.25,4.12-2.83,7.26-7.15,9.42-12.96v-64.39h22.27l.14,102.86h-22.27l-.14-10.93Z"/>
  <path class="st2" d="M740.45,87.29h22.27v50.01c3.51-2.84,7.56-5.06,12.15-6.68,4.59-1.62,9.58-2.43,14.99-2.43,7.42,0,14.34,1.35,20.75,4.05,6.41,2.7,11.91,6.38,16.5,11.04,4.59,4.66,8.2,10.16,10.83,16.5,2.63,6.35,3.95,13.23,3.95,20.65s-1.32,14.31-3.95,20.65c-2.63,6.35-6.25,11.85-10.83,16.5-4.59,4.66-10.09,8.34-16.5,11.04-6.41,2.7-13.33,4.05-20.75,4.05-10.94,0-19.98-2.97-27.14-8.91v8.95h-22.27V87.29ZM789.65,149.45c-5.67,0-10.9,1.25-15.7,3.75-4.79,2.5-8.54,5.84-11.24,10.02v34.42c2.7,4.19,6.45,7.53,11.24,10.02,4.79,2.5,10.02,3.75,15.7,3.75,4.32,0,8.26-.77,11.84-2.33,3.58-1.55,6.69-3.71,9.32-6.48,2.63-2.77,4.66-6.04,6.07-9.82,1.42-3.78,2.13-7.9,2.13-12.35s-.71-8.57-2.13-12.35c-1.42-3.78-3.44-7.05-6.07-9.82-2.63-2.76-5.74-4.92-9.32-6.48-3.58-1.55-7.52-2.33-11.84-2.33Z"/>
  <g>
    <polygon class="st0" points="251.89 218.14 251.89 218.15 226.71 232.69 226.71 232.7 201.52 247.23 176.33 232.7 176.33 232.69 151.14 218.15 151.14 218.14 151.13 218.14 125.95 203.61 125.95 203.6 151.13 189.06 151.14 189.06 176.32 203.61 176.33 203.61 201.52 218.14 226.71 203.61 251.89 218.14"/>
    <polygon class="st0" points="377.84 116.37 377.84 145.46 352.65 130.91 327.46 145.46 327.46 116.37 352.65 101.83 377.84 116.37"/>
    <polygon class="st0" points="428.21 87.29 403.02 101.82 377.84 87.29 403.02 72.74 428.21 87.29"/>
    <polygon class="st0" points="327.46 87.28 327.46 87.29 302.27 101.82 277.08 87.29 302.27 72.74 327.46 87.28"/>
    <polygon class="st0" points="403.01 43.65 377.84 58.2 352.65 43.66 352.65 43.65 352.64 43.65 327.46 58.2 302.28 43.65 327.46 29.12 352.65 14.58 377.83 29.12 377.84 29.12 403.01 43.65"/>
    <polygon class="st0" points="151.14 43.62 125.95 58.17 125.94 58.17 125.94 58.16 100.76 43.62 100.75 43.62 75.58 29.08 75.57 29.08 25.19 58.17 0 43.62 25.19 29.09 25.2 29.09 50.38 14.54 50.39 14.54 75.57 0 75.58 0 100.75 14.53 125.94 29.08 125.95 29.08 151.14 43.62"/>
    <polygon class="st0" points="151.13 159.97 125.95 174.49 125.95 174.5 125.94 174.5 100.76 189.04 100.76 189.05 100.75 189.05 75.58 203.59 50.39 189.05 25.2 174.51 25.2 174.5 50.39 159.97 75.58 174.51 125.95 145.42 151.13 159.97"/>
    <polygon class="st0" points="277.08 174.52 251.89 189.05 226.71 174.52 201.52 159.97 176.34 145.43 176.33 145.43 151.14 130.89 151.14 130.88 176.32 116.35 176.33 116.35 201.52 130.89 226.7 145.43 226.71 145.43 277.08 174.52"/>
    <polygon class="st0" points="277.08 87.26 251.89 101.81 226.71 87.26 226.7 87.26 201.52 72.73 176.33 87.26 176.32 87.26 151.14 101.81 125.95 87.26 151.13 72.72 151.14 72.73 151.14 72.72 176.32 58.18 176.33 58.18 201.52 43.64 226.7 58.17 226.7 58.18 226.71 58.18 251.88 72.72 251.88 72.73 251.89 72.72 277.08 87.26"/>
    <polygon class="st2" points="75.57 58.17 50.38 72.71 50.39 101.79 50.38 101.79 50.39 101.8 50.39 159.97 25.2 174.5 25.2 87.25 25.19 58.17 75.57 29.08 75.57 58.17"/>
    <polygon class="st2" points="151.14 43.62 151.14 72.71 125.95 87.26 125.94 87.26 125.94 58.17 125.95 58.17 151.14 43.62"/>
    <polygon class="st2" points="352.65 43.65 352.65 72.74 327.46 87.28 327.46 58.2 352.64 43.65 352.65 43.65"/>
    <polygon class="st2" points="403.02 43.65 403.02 72.74 377.84 87.29 377.84 58.2 403.01 43.65 403.02 43.65"/>
    <polygon class="st2" points="428.21 87.29 428.21 232.71 403.02 247.25 403.02 101.82 428.21 87.29"/>
    <polygon class="st2" points="151.14 159.97 151.14 189.05 151.13 189.05 125.95 203.58 125.95 203.59 125.94 203.59 100.76 218.14 75.58 232.68 75.58 203.59 100.75 189.05 100.76 189.05 100.76 189.04 125.94 174.5 125.95 174.51 125.95 174.49 151.13 159.97 151.14 159.97"/>
    <polygon class="st2" points="201.52 72.73 201.52 101.81 176.33 116.35 176.32 116.35 151.14 130.88 151.14 101.81 176.32 87.26 176.33 87.26 201.52 72.73"/>
    <line class="st2" x1="295.52" y1="68.86" x2="295.51" y2="68.86"/>
    <polygon class="st2" points="277.08 87.26 277.08 116.35 277.07 116.35 251.89 130.88 251.89 101.81 277.08 87.26"/>
    <polygon class="st2" points="277.08 174.52 277.08 232.7 251.89 247.23 201.52 276.32 201.52 247.23 226.71 232.7 226.71 232.69 251.89 218.15 251.89 189.05 277.08 174.52"/>
    <polygon class="st2" points="352.65 130.91 352.65 160 327.46 174.54 327.46 232.71 302.27 247.25 302.27 101.82 327.46 87.29 327.46 145.46 352.65 130.91"/>
    <polygon class="st1" points="75.58 203.59 75.58 232.67 50.39 218.14 50.38 218.14 25.2 203.59 0 189.06 0 101.79 0 72.71 0 43.63 0 43.62 25.19 58.17 25.2 87.25 25.2 116.34 25.19 116.34 25.2 116.35 25.2 174.51 50.39 189.05 75.58 203.59"/>
    <polygon class="st1" points="327.46 58.2 327.46 87.28 302.27 72.74 302.27 43.65 302.28 43.65 327.46 58.2"/>
    <polygon class="st1" points="125.94 58.16 125.94 87.25 100.76 72.71 100.75 72.71 100.75 72.7 75.58 58.17 75.57 58.17 75.57 29.08 75.58 29.08 100.75 43.62 100.76 43.62 125.94 58.16"/>
    <polygon class="st1" points="251.89 189.05 251.89 218.14 226.71 203.61 226.71 203.6 201.52 189.06 176.33 174.52 151.14 159.97 125.95 145.44 125.95 87.26 151.14 101.81 151.14 130.89 176.33 145.43 176.34 145.43 201.52 159.97 226.71 174.52 251.89 189.05"/>
    <polygon class="st1" points="201.52 247.23 201.52 276.32 176.33 261.77 151.14 247.24 151.14 247.23 125.95 232.7 125.95 203.61 151.13 218.14 151.14 218.14 151.14 218.15 176.33 232.69 176.33 232.7 201.52 247.23"/>
    <polygon class="st1" points="251.89 101.81 251.89 130.89 251.88 130.89 226.71 116.35 201.52 101.81 201.52 72.73 226.7 87.26 226.7 87.27 226.71 87.26 251.89 101.81"/>
    <polygon class="st1" points="377.84 58.2 377.84 87.29 352.65 72.74 352.65 43.66 377.84 58.2"/>
    <polygon class="st1" points="302.27 101.82 302.27 247.25 277.08 232.71 277.08 87.29 302.27 101.82"/>
    <polygon class="st1" points="403.02 101.82 403.02 247.25 377.84 232.71 377.84 174.53 377.83 174.53 352.65 160 352.65 130.91 377.84 145.46 377.84 87.29 403.02 101.82"/>
  </g>
</svg>