<?xml version="1.0" encoding="UTF-8"?><svg id="Laag_1" xmlns="http://www.w3.org/2000/svg" viewBox="0 0 508.6 132.57"><polygon points="121.05 18.39 135.83 18.39 165.49 62.83 165.49 18.39 180.78 18.39 180.78 86.85 166.72 86.85 136.34 41.59 136.34 86.85 121.05 86.85 121.05 18.39" fill="#212b4f"/><polygon points="189 18.39 235.8 18.39 235.8 31.94 204.49 31.94 204.49 45.28 228.82 45.28 228.82 58.42 204.49 58.42 204.49 73.2 235.85 73.2 235.85 86.85 189 86.85 189 18.39" fill="#212b4f"/><polygon points="493.31 18.39 493.31 62.83 463.65 18.39 448.87 18.39 448.87 86.85 464.16 86.85 464.16 41.58 494.54 86.85 508.6 86.85 508.6 18.39 493.31 18.39" fill="#212b4f"/><path d="M69.14,89.78h3.67l-3.67,3.66v-3.66ZM48.05,82.5v2.7h-2.7l2.7-2.7ZM6.42,78.02h23.91v7.18H6.42v-7.18ZM34.93,78.02h3.96v7.18h-3.96v-7.18ZM43.47,78.02h3.45l-3.45,3.47v-3.47ZM52.64,78.02h10.07v7.18h-10.07v-7.18ZM62.72,67.87v5.56h-5.57l5.57-5.56ZM6.42,72.36l7.77-7.62h16.15s0,8.7,0,8.7H6.42v-1.08ZM69.14,64.72h11.16v17.59l-2.89,2.88h-8.26v-20.47ZM86.69,64.72h9.19v2.07l-9.19,9.14v-11.21ZM34.93,64.72h3.96v8.71h-3.96v-8.71ZM43.47,64.72h4.58v8.71h-4.58v-8.71ZM52.64,64.72h7.57s-7.57,7.57-7.57,7.57v-7.57ZM6.42,55.55h11.32l-11.32,11.27v-11.27ZM23.36,55.55h6.97v4.59h-11.56l4.59-4.59ZM34.93,55.55h3.96v4.59h-3.96v-4.59ZM43.47,55.55h4.58v4.59h-4.58v-4.59ZM52.64,55.55h10.07v4.59h-10.07v-4.59ZM86.69,55.55h9.19v4.59h-9.19v-4.59ZM80.29,50.35v9.8h-9.8l9.8-9.8ZM30.34,48.58v2.39h-2.4l2.4-2.39ZM69.14,50.97v-8.24h11.16v1.71l-11.16,11.12v-4.58ZM86.69,44.68l1.94-1.95h7.25v8.24h-9.19v-6.29ZM34.93,43.99l3.96-3.96v10.94h-3.96v-6.98ZM6.42,38.14h23.92v4.83l-8.01,8H6.42v-12.83ZM43.47,38.14h4.58v12.83h-4.58v-12.83ZM52.64,38.14h10.07v12.83h-10.07v-12.83ZM95.88,34.83v3.3h-3.31l3.31-3.3ZM48.05,30.87v.8h-.8l.8-.8ZM69.14,36.3l11.16-11.16v12.99h-11.16v-1.83ZM23.77,19.65h6.57v12.02H11.71l12.06-12.02ZM34.92,19.65h3.96v12.02h-3.96v-12.02ZM43.47,19.65h4.58v5.56l-4.58,4.59v-10.15ZM52.66,26.26l6.61-6.61h17.23l-12.05,12.02h-11.81l.02-5.41ZM86.69,19.65h9.19v9.57l-8.98,8.92h-.21v-18.49ZM99.24,19.65h6.21l-6.21,6.21v-6.21ZM30.34,13.1v1.96h-1.98l1.98-1.96ZM95.88,9.62v5.44h-5.44l5.44-5.44ZM34.92,8.54l3.96-3.97v10.49h-3.96v-6.52ZM96.36,0l-9.67,9.67V0h-6.4v15.06h-16.44L78.93,0h-5.67l-15.03,15.06h-5.59V0h-4.59v15.06h-4.58V0h-6.84L0,36.61v68.52h6.42v-15.35h23.92v15.35h4.59v-15.35h3.96v15.35h4.58v-15.35h4.58v15.35h4.59v-15.35h10.08v15.35h2.17s40.87-40.76,40.87-40.76v-7.45l-3.21,3.22h-3.3v-4.59h6.52v-4.58h-6.52v-8.25h6.52v-4.59h-6.52v-6.45l6.52-6.51v-10.11h-6.52V6.26l6.52-6.26h-9.4Z" fill="#212b4f"/><path d="M268.33,73.09c6.84,0,12.11-1.8,15.8-5.39,3.69-3.59,5.54-8.53,5.54-14.83,0-3.15-.43-6.01-1.28-8.57-.86-2.56-2.16-4.75-3.9-6.57-1.75-1.81-3.96-3.22-6.62-4.21-2.67-.99-5.85-1.49-9.54-1.49h-9.44v41.05h9.44ZM243.39,18.39h25.86c5.27,0,10.14.69,14.62,2.05,4.48,1.37,8.35,3.45,11.6,6.26,3.25,2.81,5.78,6.4,7.6,10.78,1.81,4.38,2.72,9.54,2.72,15.5s-.93,10.62-2.77,14.83c-1.85,4.21-4.4,7.73-7.65,10.57-3.25,2.84-7.12,4.96-11.6,6.36-4.48,1.4-9.36,2.1-14.62,2.1h-25.76V18.39Z" fill="#212b4f"/><path d="M373.64,74.22c-1.44,1.98-3.18,3.85-5.23,5.59-2.05,1.74-4.33,3.27-6.83,4.57-2.5,1.3-5.2,2.33-8.11,3.08-2.91.75-5.94,1.13-9.09,1.13-5.2,0-9.95-.89-14.26-2.67s-8.02-4.26-11.14-7.44c-3.12-3.18-5.53-6.95-7.24-11.29-1.71-4.34-2.56-9.11-2.56-14.32s.85-9.8,2.56-14.21c1.71-4.42,4.12-8.25,7.24-11.5,3.11-3.25,6.84-5.82,11.19-7.7,4.34-1.88,9.15-2.82,14.42-2.82,6.36,0,11.92,1.16,16.68,3.49,4.75,2.33,8.71,5.68,11.85,10.06l-10.57,10.16c-2.05-2.87-4.48-5.18-7.29-6.93-2.81-1.74-6.16-2.62-10.06-2.62-3.08,0-5.85.56-8.31,1.69-2.46,1.13-4.55,2.69-6.26,4.67-1.71,1.98-3.03,4.29-3.95,6.93-.93,2.63-1.39,5.43-1.39,8.36s.46,5.82,1.39,8.42c.92,2.6,2.24,4.86,3.95,6.77,1.71,1.92,3.76,3.42,6.16,4.52,2.4,1.1,5.1,1.64,8.11,1.64,2.47,0,4.6-.25,6.42-.77,1.81-.51,3.42-1.2,4.82-2.05,1.4-.85,2.65-1.85,3.75-2.98s2.16-2.27,3.18-3.44l10.57,9.65Z" fill="#212b4f"/><path d="M407.71,74.02c3.01,0,5.71-.58,8.11-1.74,2.39-1.16,4.43-2.74,6.1-4.72,1.68-1.98,2.96-4.27,3.85-6.88.89-2.6,1.34-5.37,1.34-8.31s-.45-5.71-1.34-8.31c-.89-2.6-2.17-4.88-3.85-6.82-1.67-1.95-3.71-3.49-6.1-4.62-2.4-1.13-5.1-1.69-8.11-1.69s-5.73.56-8.16,1.69c-2.43,1.13-4.48,2.67-6.16,4.62-1.68,1.95-2.96,4.23-3.85,6.82-.89,2.6-1.33,5.37-1.33,8.31s.45,5.72,1.33,8.31c.89,2.6,2.17,4.89,3.85,6.88,1.68,1.99,3.73,3.56,6.16,4.72,2.43,1.16,5.15,1.74,8.16,1.74M407.71,88.59c-5.06,0-9.77-.93-14.11-2.77-4.35-1.85-8.11-4.38-11.29-7.6-3.18-3.21-5.68-7.03-7.49-11.44-1.81-4.41-2.72-9.15-2.72-14.21s.91-9.89,2.72-14.27c1.81-4.38,4.31-8.18,7.49-11.39,3.18-3.22,6.94-5.75,11.29-7.6,4.34-1.85,9.05-2.77,14.11-2.77s9.77.93,14.11,2.77c4.35,1.85,8.11,4.38,11.29,7.6,3.18,3.21,5.68,7.01,7.49,11.39,1.81,4.38,2.72,9.13,2.72,14.27s-.91,9.8-2.72,14.21c-1.81,4.41-4.31,8.23-7.49,11.44-3.18,3.22-6.94,5.75-11.29,7.6-4.34,1.85-9.05,2.77-14.11,2.77" fill="#212b4f"/><path d="M254.46,127.92h1.44v-12.63h-1.44v1.74c-1.21-1.32-2.8-1.95-4.65-1.95-3.77,0-6.42,2.93-6.42,6.52s2.65,6.52,6.42,6.52c1.84,0,3.43-.63,4.65-1.92v1.72ZM249.81,126.78c-2.91,0-4.93-2.35-4.93-5.18s2.02-5.18,4.93-5.18c2.22,0,3.84,1.11,4.65,2.5v5.33c-.78,1.42-2.4,2.53-4.65,2.53M270.73,128.12l6.39-12.84h-1.62l-4.77,9.8-4.8-9.8h-1.62l6.42,12.84ZM284.33,128.12c3.84,0,6.55-2.93,6.55-6.52s-2.7-6.52-6.55-6.52-6.54,2.93-6.54,6.52,2.7,6.52,6.54,6.52M284.33,126.78c-3.01,0-5.05-2.35-5.05-5.18s2.05-5.18,5.05-5.18,5.05,2.35,5.05,5.18-2,5.18-5.05,5.18M299.62,128.12c2.17,0,3.76-.86,4.85-1.87l-.91-1.01c-.93.89-2.22,1.54-3.94,1.54-2.86,0-4.93-2.32-4.93-5.15h10.66c-.1-4.45-2.68-6.55-5.99-6.55s-6.17,2.91-6.17,6.52,2.68,6.52,6.42,6.52M299.32,116.42c2.25,0,4.17,1.31,4.45,3.92h-8.97c.45-2.35,2.35-3.92,4.52-3.92M311.27,128.12c2.78,0,4.37-1.64,4.37-3.44s-1.09-2.91-3.21-3.67l-1.24-.42c-1.72-.61-2.1-1.39-2.1-2.38,0-1.14,1.04-1.79,2.28-1.79s2.02.61,2.4,1.52l1.24-.53c-.63-1.49-2-2.32-3.59-2.32-2.25,0-3.81,1.39-3.81,3.11,0,1.34.63,2.78,2.9,3.59l1.17.41c1.82.63,2.5,1.29,2.5,2.53s-1.26,2.07-2.83,2.07c-1.47,0-2.4-.68-3.08-1.9l-1.24.76c.76,1.59,2.45,2.48,4.25,2.48M317.18,116.68h2.2v7.9c0,2.4,1.21,3.34,3.46,3.34h1.57v-1.39h-1.54c-1.54,0-2.05-.6-2.05-2v-7.85h3.44l.33-1.39h-3.76v-3.79l-1.44.71v3.08h-2.53l.33,1.39ZM336.6,127.92h1.44v-12.63h-1.44v1.74c-1.21-1.32-2.8-1.95-4.65-1.95-3.77,0-6.42,2.93-6.42,6.52s2.65,6.52,6.42,6.52c1.84,0,3.44-.63,4.65-1.92v1.72ZM331.95,126.78c-2.91,0-4.93-2.35-4.93-5.18s2.02-5.18,4.93-5.18c2.22,0,3.84,1.11,4.65,2.5v5.33c-.78,1.42-2.4,2.53-4.65,2.53M342.03,127.92h1.44v-17.94h-1.44v17.94ZM347.43,132.57h1.44v-6.39c1.21,1.32,2.78,1.95,4.67,1.95,3.77,0,6.42-2.93,6.42-6.52s-2.65-6.52-6.42-6.52c-1.89,0-3.46.66-4.67,1.97v-1.77h-1.44v17.28ZM353.54,116.42c2.9,0,4.93,2.35,4.93,5.18s-2.02,5.18-4.93,5.18c-2.25,0-3.89-1.11-4.67-2.53v-5.28c.78-1.41,2.43-2.55,4.67-2.55M363.08,112.08h1.41c.33-.23.56-.6.56-1.03,0-.68-.58-1.26-1.26-1.26s-1.26.58-1.26,1.26c0,.43.23.81.56,1.03M363.05,127.92h1.44v-12.63h-1.44v12.63ZM368.45,127.92h1.44v-8.39c.48-1.8,1.8-3.11,3.97-3.11s3.56,1.31,3.56,3.72v7.78h1.44v-7.99c0-3.03-1.97-4.85-4.63-4.85-1.67,0-3.33.5-4.35,2.02v-1.82h-1.44v12.63ZM388.27,128.12c2.18,0,3.76-.86,4.85-1.87l-.91-1.01c-.93.89-2.22,1.54-3.94,1.54-2.86,0-4.93-2.32-4.93-5.15h10.66c-.1-4.45-2.68-6.55-5.99-6.55s-6.17,2.91-6.17,6.52,2.68,6.52,6.42,6.52M387.96,116.42c2.25,0,4.17,1.31,4.45,3.92h-8.97c.45-2.35,2.35-3.92,4.52-3.92M408.76,128.12c2.17,0,3.76-.86,4.82-1.87l-.91-1.04c-.93.89-2.2,1.57-3.91,1.57-2.86,0-4.93-2.35-4.93-5.18s2.07-5.18,4.93-5.18c1.72,0,2.98.68,3.91,1.57l.91-1.04c-1.06-1.01-2.65-1.87-4.82-1.87-3.72,0-6.42,2.93-6.42,6.52s2.7,6.52,6.42,6.52M421.51,128.12c3.84,0,6.55-2.93,6.55-6.52s-2.7-6.52-6.55-6.52-6.54,2.93-6.54,6.52,2.7,6.52,6.54,6.52M421.51,126.78c-3.01,0-5.06-2.35-5.06-5.18s2.05-5.18,5.06-5.18,5.05,2.35,5.05,5.18-2,5.18-5.05,5.18M447.66,127.92h1.44v-7.99c0-3.03-1.84-4.85-4.5-4.85-1.42,0-3.19.53-4.3,2.32-.73-1.49-2.14-2.32-3.76-2.32-1.36,0-2.88.48-3.89,1.84v-1.64h-1.44v12.63h1.44v-8.77c.51-1.62,1.74-2.73,3.51-2.73,1.9,0,3.29,1.34,3.29,3.72v7.78h1.44v-7.99c0-.15,0-.31-.02-.45.45-1.8,1.64-3.06,3.54-3.06s3.26,1.34,3.26,3.72v7.78ZM453.01,132.57h1.44v-6.39c1.21,1.32,2.78,1.95,4.67,1.95,3.77,0,6.42-2.93,6.42-6.52s-2.65-6.52-6.42-6.52c-1.89,0-3.46.66-4.67,1.97v-1.77h-1.44v17.28ZM459.12,116.42c2.91,0,4.93,2.35,4.93,5.18s-2.02,5.18-4.93,5.18c-2.25,0-3.89-1.11-4.67-2.53v-5.28c.78-1.41,2.42-2.55,4.67-2.55M478.9,127.92h1.44v-12.63h-1.44v1.74c-1.21-1.32-2.81-1.95-4.65-1.95-3.77,0-6.42,2.93-6.42,6.52s2.65,6.52,6.42,6.52c1.84,0,3.43-.63,4.65-1.92v1.72ZM474.26,126.78c-2.91,0-4.93-2.35-4.93-5.18s2.02-5.18,4.93-5.18c2.22,0,3.84,1.11,4.65,2.5v5.33c-.78,1.42-2.4,2.53-4.65,2.53M484.34,127.92h1.44v-8.39c.48-1.8,1.8-3.11,3.97-3.11s3.56,1.31,3.56,3.72v7.78h1.44v-7.99c0-3.03-1.97-4.85-4.62-4.85-1.67,0-3.34.5-4.35,2.02v-1.82h-1.44v12.63ZM498.74,132.57h1.54l8.31-17.28h-1.62l-4.57,9.83-4.55-9.83h-1.61l5.41,11.24-2.91,6.04Z" fill="#a5a5a5"/></svg>